<svg width="465" height="129" viewBox="0 0 465 129" fill="none" xmlns="http://www.w3.org/2000/svg">
<g clip-path="url(#clip0_1_24582)">
<path d="M55.4305 116.33C84.1305 116.33 107.397 93.1251 107.397 64.5C107.397 35.8749 84.1305 12.6696 55.4305 12.6696C26.7304 12.6696 3.4644 35.8749 3.4644 64.5C3.4644 93.1251 26.7304 116.33 55.4305 116.33Z" fill="#D2C882" stroke="#230000" stroke-width="9"/>
<path d="M36.1838 42.2321C37.317 40.3156 39.3125 38.743 42.1703 37.5144C45.028 36.2859 48.477 35.6716 52.5173 35.6716C58.3313 35.6716 62.7658 36.8264 65.8206 39.1361C68.8754 41.3967 70.4028 44.591 70.4028 48.719C70.4028 49.9476 70.255 51.0779 69.9594 52.1099C69.713 53.0927 69.2942 54.051 68.703 54.9847C68.161 55.8693 67.4466 56.7539 66.5597 57.6384C65.7221 58.523 64.712 59.4567 63.5295 60.4396C62.3469 61.3733 61.0166 62.3807 59.5385 63.4619C58.553 64.199 57.6169 64.9607 56.73 65.747C55.8924 66.4841 55.3258 67.3687 55.0301 68.4007C54.7838 69.3836 55.0301 70.5876 55.7692 72.0127L55.104 72.455C52.9854 71.9144 51.1623 70.8824 49.6349 69.359C48.1075 67.7864 47.467 65.7716 47.7133 63.3144C47.8611 62.0859 48.1814 61.0784 48.6741 60.2921C49.1668 59.4567 49.7334 58.695 50.374 58.007C51.0638 57.2699 51.7289 56.5081 52.3695 55.7219C53.01 54.8864 53.5273 53.879 53.9215 52.6996C54.365 51.471 54.562 49.923 54.5128 48.0556C54.4635 45.2544 53.8722 43.1167 52.739 41.6424C51.6058 40.119 49.9552 39.3573 47.7872 39.3573C45.5207 39.3573 43.747 40.2664 42.4659 42.0847C41.2341 43.903 40.6182 46.7779 40.6182 50.7093H39.8791L36.1838 42.2321ZM52.8868 89.3356C51.0638 89.3356 49.4871 88.6967 48.1568 87.419C46.8264 86.0921 46.1613 84.5196 46.1613 82.7013C46.1613 80.8339 46.8264 79.2613 48.1568 77.9836C49.4871 76.7059 51.0638 76.067 52.8868 76.067C54.7099 76.067 56.2619 76.7059 57.543 77.9836C58.824 79.2613 59.4646 80.8339 59.4646 82.7013C59.4646 84.5196 58.824 86.0921 57.543 87.419C56.2619 88.6967 54.7099 89.3356 52.8868 89.3356Z" fill="#86090A"/>
<path d="M458.841 100.589C458.841 112.887 448.845 122.857 436.515 122.857H86.8287C86.0704 122.857 85.4553 122.244 85.4553 121.487C85.4553 120.85 85.8964 120.299 86.5169 120.143C90.1815 119.224 93.766 117.943 97.2127 116.304C108.049 111.152 116.992 102.739 122.78 92.2496C128.569 81.7599 130.911 69.7241 129.479 57.8368C128.045 45.9494 122.909 34.8097 114.792 25.9879C107.237 17.7762 97.4545 11.9588 86.6586 9.22291C85.9565 9.04485 85.4553 8.4195 85.4553 7.69633C85.4553 6.8384 86.1528 6.14288 87.0127 6.14288H436.515C448.845 6.14288 458.841 16.1125 458.841 28.4107V100.589Z" fill="#D2C882"/>
<mask id="mask0_1_24582" style="mask-type:luminance" maskUnits="userSpaceOnUse" x="79" y="0" width="386" height="129">
<path d="M465 0H79.2964V129H465V0Z" fill="white"/>
<path d="M458.841 100.589C458.841 112.887 448.845 122.857 436.515 122.857H86.8287C86.0704 122.857 85.4553 122.244 85.4553 121.487C85.4553 120.85 85.8964 120.299 86.5169 120.143C90.1815 119.224 93.766 117.943 97.2127 116.304C108.049 111.152 116.992 102.739 122.78 92.2496C128.569 81.7599 130.911 69.7241 129.479 57.8368C128.045 45.9494 122.909 34.8097 114.792 25.9879C107.237 17.7762 97.4545 11.9588 86.6586 9.22291C85.9565 9.04485 85.4553 8.4195 85.4553 7.69633C85.4553 6.8384 86.1528 6.14288 87.0127 6.14288H436.515C448.845 6.14288 458.841 16.1125 458.841 28.4107V100.589Z" fill="black"/>
</mask>
<g mask="url(#mask0_1_24582)">
<path d="M436.515 122.857V116.714H86.8287V122.857V129H436.515V122.857ZM86.5169 120.143L88.0182 126.101C92.0754 125.084 96.0441 123.665 99.8634 121.849L97.2127 116.304L94.5628 110.759C91.4872 112.222 88.2884 113.365 85.0157 114.185L86.5169 120.143ZM97.2127 116.304L99.8634 121.849C111.863 116.144 121.766 106.827 128.176 95.2112L122.78 92.2496L117.385 89.2872C112.218 98.6504 104.235 106.16 94.5628 110.759L97.2127 116.304ZM122.78 92.2496L128.176 95.2112C134.586 83.5958 137.18 70.2672 135.593 57.1035L129.479 57.8368L123.364 58.57C124.642 69.1809 122.551 79.9247 117.385 89.2872L122.78 92.2496ZM129.479 57.8368L135.593 57.1035C134.006 43.9395 128.318 31.6036 119.33 21.8346L114.792 25.9879L110.254 30.1412C117.499 38.0156 122.084 47.959 123.364 58.57L129.479 57.8368ZM114.792 25.9879L119.33 21.8346C110.963 12.741 100.131 6.29888 88.176 3.26921L86.6586 9.22289L85.142 15.1765C94.7784 17.6187 103.511 22.8114 110.254 30.1412L114.792 25.9879ZM87.0127 6.14286V12.2857H436.515V6.14286V0H87.0127V6.14286ZM458.841 28.4107H452.682V100.589H458.841H465V28.4107H458.841ZM436.515 6.14286V12.2857C445.444 12.2857 452.682 19.5051 452.682 28.4107H458.841H465C465 12.7199 452.247 0 436.515 0V6.14286ZM85.4553 7.69631H91.6142C91.6142 10.231 89.5541 12.2857 87.0127 12.2857V6.14286V0C82.7515 0 79.2964 3.44577 79.2964 7.69631H85.4553ZM86.6586 9.22289L88.176 3.26921C90.1261 3.76341 91.6142 5.53024 91.6142 7.69631H85.4553H79.2964C79.2964 11.3087 81.7869 14.3261 85.142 15.1765L86.6586 9.22289ZM85.4553 121.487H91.6142C91.6142 123.735 90.0683 125.587 88.0182 126.101L86.5169 120.143L85.0157 114.185C81.7253 115.01 79.2964 117.964 79.2964 121.487H85.4553ZM86.8287 122.857V116.714C89.4717 116.714 91.6142 118.851 91.6142 121.487H85.4553H79.2964C79.2964 125.637 82.6684 129 86.8287 129V122.857ZM436.515 122.857V129C452.247 129 465 116.28 465 100.589H458.841H452.682C452.682 109.495 445.444 116.714 436.515 116.714V122.857Z" fill="#86090A"/>
</g>
<path d="M179.028 38.2516L179.388 45.1193C178.801 46.1042 178.014 46.9959 177.026 47.7945C176.039 48.5931 174.812 49.2452 173.343 49.751C171.875 50.2302 170.141 50.4697 168.139 50.4697C164.883 50.4431 162.027 49.8575 159.572 48.7129C157.143 47.5417 155.261 45.8779 153.927 43.7218C152.593 41.5657 151.926 38.957 151.926 35.8958C151.926 32.9144 152.579 30.3457 153.887 28.1896C155.195 26.0068 157.063 24.3298 159.492 23.1586C161.947 21.9874 164.869 21.4017 168.259 21.4017C170.394 21.4017 172.303 21.6147 173.984 22.0406C175.692 22.4665 177.12 22.9856 178.267 23.5978L178.307 30.4256H177.947C177.227 27.7903 176.053 25.9137 174.424 24.7957C172.796 23.651 170.888 23.0787 168.7 23.0787C166.565 23.0787 164.736 23.5978 163.215 24.6359C161.694 25.6741 160.52 27.1382 159.692 29.0281C158.864 30.918 158.451 33.1807 158.451 35.8159C158.451 38.4512 158.838 40.7272 159.612 42.6437C160.413 44.5603 161.534 46.0509 162.975 47.1157C164.443 48.1805 166.164 48.7395 168.139 48.7927C170.194 48.7927 171.929 48.46 173.343 47.7945C174.758 47.129 175.892 46.0244 176.746 44.4804C177.627 42.9365 178.281 40.8602 178.708 38.2516H179.028ZM191.169 25.9536V49.9107H185.404V25.9536H191.169ZM200.497 48.3136L201.457 49.9107H191.089V48.3136H200.497ZM203.139 42.5639L201.578 49.9107H194.652L195.893 48.3136C197.041 48.3136 198.055 48.0873 198.935 47.6348C199.843 47.1557 200.617 46.4902 201.257 45.6384C201.898 44.7599 202.392 43.7351 202.738 42.5639H203.139ZM185.484 47.3952L185.684 49.9107H182.722V49.5114C182.722 49.5114 182.802 49.5114 182.962 49.5114C183.122 49.5114 183.216 49.5114 183.242 49.5114C183.83 49.5114 184.323 49.3118 184.724 48.9125C185.151 48.4866 185.378 47.9809 185.404 47.3952H185.484ZM191.089 28.4691V25.9536H193.851V26.3529C193.825 26.3529 193.731 26.3529 193.571 26.3529C193.438 26.3529 193.371 26.3529 193.371 26.3529C192.784 26.3529 192.277 26.5525 191.849 26.9518C191.423 27.3511 191.196 27.8569 191.169 28.4691H191.089ZM185.484 28.4691H185.404C185.378 27.8569 185.151 27.3511 184.724 26.9518C184.297 26.5525 183.79 26.3529 183.202 26.3529C183.176 26.3529 183.082 26.3529 182.922 26.3529C182.789 26.3529 182.722 26.3529 182.722 26.3529V25.9536H185.484V28.4691ZM216.845 24.8755L228.695 49.7111H221.93L214.484 32.1824L216.845 24.8755ZM209.319 47.2754C209.026 47.9942 209.066 48.5532 209.439 48.9524C209.813 49.3251 210.227 49.5114 210.68 49.5114H211.001V49.9107H202.994V49.5114C202.994 49.5114 203.047 49.5114 203.154 49.5114C203.261 49.5114 203.314 49.5114 203.314 49.5114C203.848 49.5114 204.408 49.3517 204.996 49.0323C205.583 48.6862 206.064 48.1007 206.437 47.2754H209.319ZM216.845 24.8755L216.926 29.6669L208.238 49.7909H205.276L214.644 29.7069C214.697 29.5472 214.817 29.2677 215.004 28.8684C215.191 28.4424 215.391 27.9767 215.604 27.4709C215.818 26.9385 216.018 26.446 216.205 25.9935C216.392 25.5144 216.498 25.1417 216.525 24.8755H216.845ZM220.328 42.0847V43.6419H210.12V42.0847H220.328ZM220.929 47.2754H227.534C227.935 48.1007 228.428 48.6862 229.016 49.0323C229.603 49.3517 230.163 49.5114 230.697 49.5114C230.697 49.5114 230.75 49.5114 230.857 49.5114C230.964 49.5114 231.017 49.5114 231.017 49.5114V49.9107H219.248V49.5114H219.568C220.021 49.5114 220.435 49.3251 220.809 48.9524C221.182 48.5532 221.222 47.9942 220.929 47.2754ZM239.835 25.4345C240.37 25.4345 241.01 25.4612 241.757 25.5144C242.531 25.5676 243.292 25.6342 244.039 25.714C244.786 25.7672 245.44 25.8471 246 25.9536C246.588 26.0334 246.988 26.1133 247.201 26.1932L246.681 31.0644H246.321C246.321 29.8399 245.894 28.8684 245.04 28.1497C244.186 27.4309 242.958 27.0716 241.357 27.0716C240.075 27.0716 239.035 27.3511 238.234 27.9101C237.46 28.4691 237.047 29.2144 236.993 30.1461C236.94 30.6252 237.02 31.0644 237.233 31.4637C237.473 31.8364 237.794 32.1692 238.194 32.4619C238.621 32.7547 239.089 33.0476 239.595 33.3404L245.88 37.2134C246.948 37.7458 247.789 38.5178 248.402 39.5293C249.017 40.5408 249.283 41.7653 249.203 43.2027C249.123 44.6934 248.683 45.9844 247.882 47.0758C247.108 48.1672 246.027 49.0057 244.639 49.5913C243.278 50.1503 241.664 50.4298 239.795 50.4298C238.648 50.4298 237.58 50.3367 236.593 50.1503C235.606 49.9639 234.751 49.7111 234.031 49.3917C233.337 49.0722 232.803 48.7129 232.429 48.3136C232.216 47.7812 232.123 47.1424 232.149 46.397C232.176 45.6251 232.296 44.8664 232.509 44.1211C232.723 43.3492 232.99 42.7103 233.31 42.2045H233.63C233.55 43.4024 233.764 44.5071 234.271 45.5186C234.805 46.5301 235.579 47.342 236.593 47.9542C237.607 48.5399 238.821 48.8327 240.236 48.8327C241.784 48.8327 242.945 48.4733 243.718 47.7546C244.493 47.0359 244.879 46.1974 244.879 45.2391C244.879 44.5204 244.639 43.8815 244.159 43.3225C243.705 42.7369 242.945 42.1646 241.877 41.6056L236.192 38.012C234.858 37.32 233.884 36.4016 233.27 35.2569C232.683 34.1123 232.469 32.8612 232.629 31.5037C232.763 30.2259 233.137 29.1346 233.75 28.2295C234.391 27.3244 235.231 26.6324 236.272 26.1532C237.313 25.6741 238.501 25.4345 239.835 25.4345ZM247.201 25.7939L247.161 26.5126H242.878V25.7939H247.201ZM260.438 25.4345C260.972 25.4345 261.613 25.4612 262.36 25.5144C263.134 25.5676 263.894 25.6342 264.642 25.714C265.39 25.7672 266.043 25.8471 266.604 25.9536C267.191 26.0334 267.591 26.1133 267.805 26.1932L267.284 31.0644H266.924C266.924 29.8399 266.497 28.8684 265.643 28.1497C264.789 27.4309 263.561 27.0716 261.96 27.0716C260.679 27.0716 259.638 27.3511 258.837 27.9101C258.063 28.4691 257.649 29.2144 257.596 30.1461C257.543 30.6252 257.623 31.0644 257.836 31.4637C258.077 31.8364 258.397 32.1692 258.797 32.4619C259.224 32.7547 259.691 33.0476 260.198 33.3404L266.483 37.2134C267.551 37.7458 268.392 38.5178 269.006 39.5293C269.619 40.5408 269.886 41.7653 269.806 43.2027C269.726 44.6934 269.286 45.9844 268.485 47.0758C267.711 48.1672 266.631 49.0057 265.242 49.5913C263.881 50.1503 262.267 50.4298 260.398 50.4298C259.251 50.4298 258.184 50.3367 257.196 50.1503C256.208 49.9639 255.354 49.7111 254.634 49.3917C253.94 49.0722 253.406 48.7129 253.032 48.3136C252.819 47.7812 252.725 47.1424 252.752 46.397C252.779 45.6251 252.899 44.8664 253.112 44.1211C253.326 43.3492 253.593 42.7103 253.913 42.2045H254.233C254.153 43.4024 254.367 44.5071 254.874 45.5186C255.407 46.5301 256.182 47.342 257.196 47.9542C258.21 48.5399 259.425 48.8327 260.839 48.8327C262.387 48.8327 263.548 48.4733 264.322 47.7546C265.095 47.0359 265.483 46.1974 265.483 45.2391C265.483 44.5204 265.242 43.8815 264.762 43.3225C264.309 42.7369 263.548 42.1646 262.48 41.6056L256.795 38.012C255.461 37.32 254.487 36.4016 253.873 35.2569C253.286 34.1123 253.072 32.8612 253.233 31.5037C253.366 30.2259 253.74 29.1346 254.353 28.2295C254.994 27.3244 255.835 26.6324 256.876 26.1532C257.916 25.6741 259.104 25.4345 260.438 25.4345ZM267.805 25.7939L267.765 26.5126H263.481V25.7939H267.805ZM281.207 25.9536V49.9107H275.442V25.9536H281.207ZM275.563 47.3952V49.9107H272.64V49.5114C272.64 49.5114 272.72 49.5114 272.88 49.5114C273.04 49.5114 273.134 49.5114 273.161 49.5114C273.774 49.5114 274.308 49.3118 274.762 48.9125C275.215 48.4866 275.442 47.9809 275.442 47.3952H275.563ZM281.127 47.3952H281.207C281.234 47.9809 281.46 48.4866 281.888 48.9125C282.341 49.3118 282.889 49.5114 283.529 49.5114C283.529 49.5114 283.596 49.5114 283.729 49.5114C283.889 49.5114 283.983 49.5114 284.01 49.5114V49.9107H281.127V47.3952ZM281.127 28.4691V25.9536H284.01L283.969 26.3529C283.969 26.3529 283.903 26.3529 283.769 26.3529C283.636 26.3529 283.556 26.3529 283.529 26.3529C282.889 26.3529 282.341 26.5525 281.888 26.9518C281.46 27.3511 281.234 27.8569 281.207 28.4691H281.127ZM275.563 28.4691H275.442C275.442 27.8569 275.215 27.3511 274.762 26.9518C274.308 26.5525 273.761 26.3529 273.121 26.3529C273.121 26.3529 273.04 26.3529 272.88 26.3529C272.72 26.3529 272.64 26.3529 272.64 26.3529V25.9536H275.563V28.4691ZM310.382 39.8887L310.822 45.9179C310.316 46.7697 309.608 47.5417 308.701 48.2337C307.794 48.8992 306.686 49.4316 305.378 49.8309C304.071 50.2302 302.549 50.4298 300.814 50.4298C297.826 50.4032 295.25 49.8975 293.088 48.9125C290.926 47.9276 289.258 46.5168 288.084 44.6801C286.937 42.8167 286.362 40.5542 286.362 37.8922C286.362 35.2836 286.937 33.0609 288.084 31.2242C289.232 29.3608 290.886 27.9367 293.048 26.9518C295.21 25.9403 297.799 25.4345 300.814 25.4345C302.63 25.4345 304.311 25.6075 305.858 25.9536C307.434 26.2997 308.741 26.7389 309.782 27.2712L309.822 33.6199H309.501C308.835 31.1709 307.78 29.454 306.339 28.4691C304.898 27.4842 303.19 26.9917 301.215 26.9917C299.267 26.9917 297.639 27.4442 296.33 28.3493C295.049 29.2544 294.076 30.5187 293.408 32.1425C292.768 33.7663 292.447 35.6695 292.447 37.8523C292.447 40.0617 292.768 41.9782 293.408 43.602C294.076 45.2258 295.036 46.4902 296.29 47.3952C297.545 48.3003 299.053 48.7794 300.814 48.8327C302.71 48.8327 304.271 48.5399 305.498 47.9542C306.753 47.3686 307.74 46.4237 308.461 45.1193C309.208 43.8149 309.742 42.0715 310.062 39.8887H310.382Z" fill="#05100E"/>
<path d="M156.868 70.8824C157.435 70.8824 158.026 70.9131 158.642 70.9746C159.27 71.036 159.849 71.1159 160.379 71.2141C160.908 71.3124 161.321 71.423 161.617 71.5459L161.358 74.6787H161.229C161.007 73.8556 160.705 73.2351 160.323 72.8174C159.942 72.3874 159.529 72.0987 159.085 71.9513C158.654 71.7916 158.229 71.7117 157.811 71.7117C156.998 71.7117 156.332 71.9083 155.815 72.3014C155.31 72.6946 154.934 73.272 154.688 74.0337C154.454 74.7831 154.337 75.6984 154.337 76.7796C154.337 77.7624 154.429 78.6101 154.614 79.3227C154.811 80.0353 155.113 80.5881 155.519 80.9813C155.926 81.3621 156.449 81.5526 157.09 81.5526C157.398 81.5526 157.694 81.485 157.977 81.3499C158.26 81.2147 158.482 81.0181 158.642 80.7601C158.802 80.5021 158.851 80.1827 158.79 79.8019L158.808 77.7379C158.808 77.4921 158.741 77.3079 158.605 77.185C158.47 77.0621 158.279 77.0007 158.032 77.0007H157.774V76.8533H163.409V77.0007H163.187C162.645 77.0007 162.387 77.2464 162.411 77.7379L162.393 80.3547C162.159 80.6741 161.752 80.9936 161.173 81.313C160.607 81.6201 159.935 81.8781 159.159 82.087C158.383 82.2836 157.558 82.3819 156.683 82.3819C155.452 82.3819 154.374 82.1546 153.45 81.7C152.538 81.2331 151.83 80.5697 151.325 79.7097C150.82 78.8497 150.568 77.8116 150.568 76.5953C150.568 75.4036 150.814 74.3839 151.307 73.5361C151.812 72.6761 152.532 72.0189 153.468 71.5643C154.405 71.1097 155.538 70.8824 156.868 70.8824ZM168.289 71.1036V82.1607H164.668V71.1036H168.289ZM172.188 81.313L172.927 82.1607H168.252V81.313H172.188ZM171.726 76.282V77.1481H168.252V76.282H171.726ZM172.539 71.1036V71.9513H168.252V71.1036H172.539ZM173.481 78.2907L172.964 82.1607H169.527L170.063 81.313C170.543 81.313 170.999 81.1963 171.43 80.9629C171.874 80.7171 172.262 80.3731 172.594 79.9309C172.927 79.4763 173.167 78.9296 173.315 78.2907H173.481ZM171.726 77.1113V79.1016H171.541V79.0279C171.541 78.4873 171.369 78.045 171.024 77.701C170.691 77.3447 170.254 77.1604 169.712 77.1481V77.1113H171.726ZM171.726 74.347V76.3189H169.712V76.282C170.254 76.2697 170.691 76.0854 171.024 75.7291C171.369 75.3729 171.541 74.9244 171.541 74.3839V74.347H171.726ZM172.539 71.9144V74.3101H172.354V74.218C172.354 73.5054 172.169 72.9526 171.8 72.5594C171.43 72.1663 170.894 71.9636 170.192 71.9513V71.9144H172.539ZM172.539 70.8271V71.2694L170.71 71.1036C171.042 71.1036 171.393 71.0729 171.763 71.0114C172.145 70.9377 172.403 70.8763 172.539 70.8271ZM164.723 81.0181L164.705 82.1607H163.504V81.9764C163.504 81.9764 163.534 81.9764 163.596 81.9764C163.658 81.9764 163.695 81.9764 163.707 81.9764C163.966 81.9764 164.187 81.8843 164.372 81.7C164.569 81.5157 164.668 81.2884 164.668 81.0181H164.723ZM164.723 72.2646H164.668C164.668 71.982 164.569 71.7486 164.372 71.5643C164.187 71.38 163.966 71.2879 163.707 71.2879C163.695 71.2879 163.658 71.2879 163.596 71.2879C163.534 71.2879 163.504 71.2879 163.504 71.2879V71.1036H164.705L164.723 72.2646ZM181.317 71.1589V82.1607H177.677V71.1589H181.317ZM185.031 71.0851V71.9513H173.963V71.0851H185.031ZM185.031 71.8776V74.2733H184.846V74.1811C184.858 73.4809 184.674 72.9403 184.292 72.5594C183.91 72.1663 183.368 71.9636 182.666 71.9513V71.8776H185.031ZM185.031 70.8087V71.2694L183.165 71.0851C183.386 71.0851 183.626 71.0729 183.885 71.0483C184.156 71.0114 184.396 70.9746 184.606 70.9377C184.827 70.8886 184.969 70.8456 185.031 70.8087ZM177.714 81.0181V82.1607H176.531V81.9764C176.531 81.9764 176.562 81.9764 176.624 81.9764C176.685 81.9764 176.716 81.9764 176.716 81.9764C176.987 81.9764 177.209 81.8843 177.381 81.7C177.566 81.5157 177.665 81.2884 177.677 81.0181H177.714ZM181.243 81.0181H181.317C181.305 81.2884 181.391 81.5157 181.576 81.7C181.773 81.8843 182.007 81.9764 182.278 81.9764C182.278 81.9764 182.308 81.9764 182.37 81.9764C182.432 81.9764 182.462 81.9764 182.462 81.9764V82.1607H181.243V81.0181ZM176.328 71.8776V71.9513C175.626 71.9636 175.084 72.1663 174.702 72.5594C174.333 72.9403 174.148 73.4809 174.148 74.1811V74.2733H173.963V71.8776H176.328ZM173.963 70.8087C174.062 70.8456 174.216 70.8886 174.425 70.9377C174.634 70.9746 174.862 71.0114 175.109 71.0483C175.367 71.0729 175.608 71.0851 175.829 71.0851L173.963 71.2694V70.8087ZM201.111 77.5536L201.591 80.5021C201.407 80.8339 201.136 81.141 200.778 81.4236C200.421 81.7061 199.953 81.9396 199.374 82.1239C198.807 82.2959 198.099 82.3819 197.249 82.3819C195.796 82.3696 194.539 82.1423 193.48 81.7C192.433 81.2577 191.626 80.6127 191.06 79.765C190.493 78.905 190.21 77.8546 190.21 76.6137C190.21 75.4097 190.487 74.3839 191.041 73.5361C191.595 72.6761 192.396 72.0189 193.443 71.5643C194.502 71.1097 195.771 70.8824 197.249 70.8824C198.136 70.8824 198.925 70.95 199.614 71.0851C200.304 71.2203 200.858 71.3739 201.277 71.5459L201.037 74.6787H200.908C200.575 73.5484 200.126 72.7744 199.559 72.3567C198.992 71.9267 198.327 71.7117 197.563 71.7117C196.726 71.7117 196.042 71.9206 195.512 72.3383C194.983 72.7437 194.595 73.315 194.348 74.0521C194.102 74.777 193.979 75.6124 193.979 76.5584C193.979 77.5536 194.102 78.4197 194.348 79.1569C194.607 79.894 194.977 80.4714 195.457 80.8891C195.95 81.2946 196.547 81.5157 197.249 81.5526C198.099 81.5526 198.752 81.4297 199.208 81.184C199.676 80.926 200.033 80.5083 200.28 79.9309C200.538 79.3411 200.772 78.5487 200.982 77.5536H201.111ZM207.3 71.1036V82.1607H203.678V71.1036H207.3ZM211.18 81.313L211.938 82.1607H207.263V81.313H211.18ZM212.51 78.2907L211.975 82.1607H208.538L209.074 81.313C209.554 81.313 210.01 81.1963 210.441 80.9629C210.884 80.7171 211.272 80.3731 211.605 79.9309C211.938 79.4763 212.178 78.9296 212.326 78.2907H212.51ZM203.734 81.0181L203.715 82.1607H202.514V81.9764C202.514 81.9764 202.545 81.9764 202.607 81.9764C202.668 81.9764 202.705 81.9764 202.718 81.9764C202.976 81.9764 203.198 81.8843 203.383 81.7C203.58 81.5157 203.678 81.2884 203.678 81.0181H203.734ZM207.263 72.2461V71.1036H208.482V71.2879C208.47 71.2879 208.433 71.2879 208.372 71.2879C208.31 71.2879 208.279 71.2879 208.279 71.2879C208.008 71.2879 207.78 71.38 207.596 71.5643C207.411 71.7363 207.312 71.9636 207.3 72.2461H207.263ZM203.734 72.2461H203.678C203.678 71.9636 203.58 71.7363 203.383 71.5643C203.198 71.38 202.976 71.2879 202.718 71.2879C202.705 71.2879 202.668 71.2879 202.607 71.2879C202.545 71.2879 202.514 71.2879 202.514 71.2879V71.1036H203.734V72.2461ZM217.437 71.1036V78.0511C217.437 79.1323 217.671 79.98 218.139 80.5943C218.619 81.1963 219.284 81.4973 220.134 81.4973C220.972 81.4973 221.619 81.2147 222.074 80.6496C222.53 80.0721 222.764 79.2736 222.777 78.2539V71.1036H224.236V78.0511C224.236 79.4026 223.836 80.4653 223.035 81.2393C222.235 82.001 221.077 82.3819 219.562 82.3819C217.554 82.3819 216.094 82.001 215.183 81.2393C214.271 80.4776 213.815 79.4271 213.815 78.088V71.1036H217.437ZM213.852 71.1036V72.0434H213.815C213.815 71.81 213.735 71.6196 213.575 71.4721C213.415 71.3247 213.224 71.251 213.002 71.251C213.002 71.251 212.959 71.251 212.873 71.251C212.799 71.251 212.762 71.251 212.762 71.251V71.1036H213.852ZM218.49 71.1036V71.251C218.49 71.251 218.447 71.251 218.361 71.251C218.274 71.251 218.231 71.251 218.231 71.251C218.01 71.251 217.819 71.3247 217.658 71.4721C217.511 71.6196 217.437 71.81 217.437 72.0434H217.4V71.1036H218.49ZM222.814 71.1036V72.0434H222.777C222.764 71.81 222.678 71.6196 222.518 71.4721C222.37 71.3247 222.185 71.251 221.964 71.251C221.964 71.251 221.92 71.251 221.834 71.251C221.76 71.251 221.723 71.251 221.723 71.251V71.1036H222.814ZM225.289 71.1036V71.251C225.289 71.251 225.246 71.251 225.16 71.251C225.086 71.251 225.049 71.251 225.049 71.251C224.827 71.251 224.637 71.3247 224.476 71.4721C224.316 71.6196 224.236 71.81 224.236 72.0434H224.199V71.1036H225.289ZM230.666 71.1036V82.1607H227.045V71.1036H230.666ZM234.565 81.313L235.304 82.1607H230.629V81.313H234.565ZM234.103 76.282V77.1481H230.629V76.282H234.103ZM234.916 71.1036V71.9513H230.629V71.1036H234.916ZM235.858 78.2907L235.341 82.1607H231.904L232.44 81.313C232.92 81.313 233.376 81.1963 233.807 80.9629C234.251 80.7171 234.639 80.3731 234.971 79.9309C235.304 79.4763 235.544 78.9296 235.692 78.2907H235.858ZM234.103 77.1113V79.1016H233.918V79.0279C233.918 78.4873 233.746 78.045 233.401 77.701C233.068 77.3447 232.631 77.1604 232.089 77.1481V77.1113H234.103ZM234.103 74.347V76.3189H232.089V76.282C232.631 76.2697 233.068 76.0854 233.401 75.7291C233.746 75.3729 233.918 74.9244 233.918 74.3839V74.347H234.103ZM234.916 71.9144V74.3101H234.731V74.218C234.731 73.5054 234.546 72.9526 234.177 72.5594C233.807 72.1663 233.271 71.9636 232.569 71.9513V71.9144H234.916ZM234.916 70.8271V71.2694L233.087 71.1036C233.419 71.1036 233.77 71.0729 234.14 71.0114C234.522 70.9377 234.78 70.8763 234.916 70.8271ZM227.1 81.0181L227.082 82.1607H225.881V81.9764C225.881 81.9764 225.911 81.9764 225.973 81.9764C226.035 81.9764 226.072 81.9764 226.084 81.9764C226.343 81.9764 226.564 81.8843 226.749 81.7C226.946 81.5157 227.045 81.2884 227.045 81.0181H227.1ZM227.1 72.2646H227.045C227.045 71.982 226.946 71.7486 226.749 71.5643C226.564 71.38 226.343 71.2879 226.084 71.2879C226.072 71.2879 226.035 71.2879 225.973 71.2879C225.911 71.2879 225.881 71.2879 225.881 71.2879V71.1036H227.082L227.1 72.2646ZM240.574 70.8824C240.758 70.8824 241.054 70.8947 241.46 70.9193C241.867 70.9316 242.292 70.9561 242.735 70.993C243.191 71.0299 243.591 71.0729 243.936 71.122C244.281 71.1589 244.491 71.1957 244.565 71.2326L244.158 73.7389H244.047C244.047 73.1491 243.832 72.67 243.401 72.3014C242.969 71.9329 242.384 71.7486 241.645 71.7486C241.066 71.7486 240.617 71.8591 240.296 72.0803C239.976 72.2891 239.791 72.584 239.742 72.9649C239.718 73.2351 239.773 73.4624 239.908 73.6467C240.056 73.8187 240.253 73.9661 240.5 74.089C240.746 74.2119 240.999 74.3286 241.257 74.4391L243.641 75.5264C244.257 75.7967 244.756 76.2021 245.137 76.7427C245.519 77.271 245.673 77.959 245.599 78.8067C245.538 79.593 245.304 80.2564 244.897 80.797C244.491 81.3253 243.924 81.7246 243.197 81.9949C242.471 82.2529 241.596 82.3819 240.574 82.3819C239.933 82.3819 239.373 82.3327 238.892 82.2344C238.412 82.1361 238.018 82.0071 237.71 81.8474C237.402 81.6877 237.174 81.5157 237.026 81.3314C236.891 81.0489 236.835 80.7049 236.86 80.2994C236.884 79.894 236.964 79.5009 237.1 79.12C237.235 78.7269 237.396 78.4136 237.58 78.1801H237.691C237.667 78.733 237.777 79.2674 238.024 79.7834C238.282 80.2871 238.664 80.7049 239.169 81.0366C239.687 81.356 240.309 81.5219 241.036 81.5341C241.725 81.5464 242.218 81.399 242.514 81.0919C242.822 80.7847 242.976 80.453 242.976 80.0967C242.976 79.7527 242.828 79.4394 242.532 79.1569C242.249 78.8743 241.781 78.5917 241.128 78.3091L239.188 77.4061C238.399 77.0744 237.814 76.5891 237.433 75.9503C237.063 75.2991 236.94 74.562 237.063 73.7389C237.162 73.1 237.359 72.5717 237.654 72.154C237.962 71.724 238.363 71.4046 238.855 71.1957C239.348 70.9869 239.921 70.8824 240.574 70.8824ZM244.602 71.0483L244.546 71.3616H242.144V71.0483H244.602ZM258.068 70.8824C259.127 70.8824 260.07 71.0114 260.895 71.2694C261.733 71.5274 262.441 71.9021 263.02 72.3936C263.611 72.885 264.055 73.487 264.35 74.1996C264.658 74.9121 264.812 75.7291 264.812 76.6506C264.812 77.5597 264.658 78.3706 264.35 79.0831C264.055 79.7834 263.611 80.3793 263.02 80.8707C262.441 81.3621 261.733 81.7369 260.895 81.9949C260.07 82.2529 259.127 82.3819 258.068 82.3819C257.021 82.3819 256.079 82.2529 255.241 81.9949C254.416 81.7369 253.708 81.3621 253.116 80.8707C252.537 80.3793 252.094 79.7834 251.786 79.0831C251.49 78.3706 251.343 77.5597 251.343 76.6506C251.343 75.7291 251.49 74.9121 251.786 74.1996C252.094 73.487 252.537 72.885 253.116 72.3936C253.708 71.9021 254.416 71.5274 255.241 71.2694C256.079 71.0114 257.021 70.8824 258.068 70.8824ZM258.068 81.5526C258.721 81.5526 259.263 81.3621 259.694 80.9813C260.137 80.5881 260.47 80.0291 260.692 79.3043C260.913 78.5671 261.024 77.6826 261.024 76.6506C261.024 75.6063 260.913 74.7156 260.692 73.9784C260.47 73.2413 260.137 72.6823 259.694 72.3014C259.263 71.9083 258.721 71.7117 258.068 71.7117C257.428 71.7117 256.886 71.9083 256.442 72.3014C256.011 72.6823 255.678 73.2413 255.444 73.9784C255.223 74.7156 255.112 75.6063 255.112 76.6506C255.112 77.6826 255.223 78.5671 255.444 79.3043C255.678 80.0291 256.011 80.5881 256.442 80.9813C256.886 81.3621 257.428 81.5526 258.068 81.5526ZM266.523 70.864L277.757 80.2994L277.96 82.3819L266.726 72.9833L266.523 70.864ZM266.634 81.055V82.1607H265.266V81.9764C265.266 81.9764 265.316 81.9764 265.414 81.9764C265.513 81.9764 265.562 81.9764 265.562 81.9764C265.845 81.9764 266.085 81.8904 266.283 81.7184C266.48 81.5464 266.578 81.3253 266.578 81.055H266.634ZM270.2 81.055C270.212 81.3253 270.317 81.5464 270.514 81.7184C270.711 81.8904 270.945 81.9764 271.216 81.9764C271.216 81.9764 271.265 81.9764 271.364 81.9764C271.462 81.9764 271.511 81.9764 271.511 81.9764V82.1607H270.163V81.055H270.2ZM266.523 70.864L270.2 74.7524V82.1607H266.578V72.8174C266.578 72.1909 266.541 71.7117 266.467 71.38C266.393 71.036 266.356 70.864 266.356 70.864H266.523ZM277.904 71.1036V80.3731C277.904 80.8154 277.923 81.1901 277.96 81.4973C277.997 81.7921 278.034 82.0133 278.071 82.1607C278.108 82.3081 278.126 82.3819 278.126 82.3819H277.96L274.283 78.1801L274.265 71.1036H277.904ZM277.868 72.2093V71.1036H279.235V71.2879C279.235 71.2879 279.179 71.2879 279.069 71.2879C278.97 71.2879 278.921 71.2879 278.921 71.2879C278.65 71.2879 278.416 71.3739 278.219 71.5459C278.021 71.7179 277.917 71.939 277.904 72.2093H277.868ZM274.265 72.2093C274.265 71.939 274.166 71.7179 273.969 71.5459C273.784 71.3739 273.55 71.2879 273.267 71.2879C273.267 71.2879 273.211 71.2879 273.1 71.2879C273.002 71.2879 272.953 71.2879 272.953 71.2879V71.1036H274.32V72.2093H274.265ZM289.237 71.1036V82.1607H285.615V71.1036H289.237ZM293.136 81.313L293.875 82.1607H289.2V81.313H293.136ZM292.674 76.282V77.1481H289.2V76.282H292.674ZM293.487 71.1036V71.9513H289.2V71.1036H293.487ZM294.429 78.2907L293.912 82.1607H290.475L291.011 81.313C291.491 81.313 291.947 81.1963 292.378 80.9629C292.821 80.7171 293.209 80.3731 293.542 79.9309C293.875 79.4763 294.115 78.9296 294.263 78.2907H294.429ZM292.674 77.1113V79.1016H292.489V79.0279C292.489 78.4873 292.316 78.045 291.971 77.701C291.639 77.3447 291.202 77.1604 290.66 77.1481V77.1113H292.674ZM292.674 74.347V76.3189H290.66V76.282C291.202 76.2697 291.639 76.0854 291.971 75.7291C292.316 75.3729 292.489 74.9244 292.489 74.3839V74.347H292.674ZM293.487 71.9144V74.3101H293.302V74.218C293.302 73.5054 293.117 72.9526 292.748 72.5594C292.378 72.1663 291.842 71.9636 291.14 71.9513V71.9144H293.487ZM293.487 70.8271V71.2694L291.657 71.1036C291.99 71.1036 292.341 71.0729 292.711 71.0114C293.092 70.9377 293.351 70.8763 293.487 70.8271ZM285.671 81.0181L285.652 82.1607H284.451V81.9764C284.451 81.9764 284.482 81.9764 284.544 81.9764C284.605 81.9764 284.642 81.9764 284.655 81.9764C284.913 81.9764 285.135 81.8843 285.32 81.7C285.517 81.5157 285.615 81.2884 285.615 81.0181H285.671ZM285.671 72.2646H285.615C285.615 71.982 285.517 71.7486 285.32 71.5643C285.135 71.38 284.913 71.2879 284.655 71.2879C284.642 71.2879 284.605 71.2879 284.544 71.2879C284.482 71.2879 284.451 71.2879 284.451 71.2879V71.1036H285.652L285.671 72.2646ZM300.585 82.3819L294.931 71.1957H299.162L302.155 77.8669L300.585 82.3819ZM300.585 82.3819L300.548 79.6729L304.409 71.1589H305.888L301.693 79.9124C301.644 80.023 301.57 80.1889 301.472 80.41C301.373 80.6189 301.268 80.8523 301.158 81.1103C301.059 81.356 300.967 81.5956 300.88 81.829C300.807 82.0501 300.757 82.2344 300.733 82.3819H300.585ZM303.911 72.2461C304.046 71.9267 304.028 71.6871 303.855 71.5274C303.695 71.3554 303.51 71.2694 303.301 71.2694H303.153V71.1036H306.941V71.2879C306.941 71.2879 306.916 71.2879 306.867 71.2879C306.818 71.2879 306.793 71.2879 306.793 71.2879C306.559 71.2879 306.306 71.3616 306.035 71.509C305.764 71.6441 305.543 71.8899 305.37 72.2461H303.911ZM299.624 72.2461H295.467C295.294 71.8899 295.073 71.6441 294.802 71.509C294.543 71.3616 294.29 71.2879 294.044 71.2879C294.044 71.2879 294.025 71.2879 293.989 71.2879C293.939 71.2879 293.915 71.2879 293.915 71.2879V71.1036H300.4V71.2694H300.252C300.055 71.2694 299.87 71.3554 299.698 71.5274C299.525 71.6871 299.501 71.9267 299.624 72.2461ZM311.502 71.1036V82.1607H307.881V71.1036H311.502ZM315.401 81.313L316.14 82.1607H311.465V81.313H315.401ZM314.939 76.282V77.1481H311.465V76.282H314.939ZM315.752 71.1036V71.9513H311.465V71.1036H315.752ZM316.694 78.2907L316.177 82.1607H312.74L313.276 81.313C313.756 81.313 314.212 81.1963 314.643 80.9629C315.087 80.7171 315.475 80.3731 315.807 79.9309C316.14 79.4763 316.38 78.9296 316.528 78.2907H316.694ZM314.939 77.1113V79.1016H314.754V79.0279C314.754 78.4873 314.582 78.045 314.237 77.701C313.904 77.3447 313.467 77.1604 312.925 77.1481V77.1113H314.939ZM314.939 74.347V76.3189H312.925V76.282C313.467 76.2697 313.904 76.0854 314.237 75.7291C314.582 75.3729 314.754 74.9244 314.754 74.3839V74.347H314.939ZM315.752 71.9144V74.3101H315.567V74.218C315.567 73.5054 315.382 72.9526 315.013 72.5594C314.643 72.1663 314.107 71.9636 313.405 71.9513V71.9144H315.752ZM315.752 70.8271V71.2694L313.923 71.1036C314.255 71.1036 314.606 71.0729 314.976 71.0114C315.358 70.9377 315.616 70.8763 315.752 70.8271ZM307.936 81.0181L307.918 82.1607H306.717V81.9764C306.717 81.9764 306.748 81.9764 306.809 81.9764C306.871 81.9764 306.908 81.9764 306.92 81.9764C307.179 81.9764 307.4 81.8843 307.585 81.7C307.782 81.5157 307.881 81.2884 307.881 81.0181H307.936ZM307.936 72.2646H307.881C307.881 71.982 307.782 71.7486 307.585 71.5643C307.4 71.38 307.179 71.2879 306.92 71.2879C306.908 71.2879 306.871 71.2879 306.809 71.2879C306.748 71.2879 306.717 71.2879 306.717 71.2879V71.1036H307.918L307.936 72.2646ZM322.186 71.1036H323.904C324.372 71.1036 324.853 71.1466 325.345 71.2326C325.838 71.3063 326.294 71.4476 326.713 71.6564C327.131 71.8653 327.47 72.1724 327.729 72.5779C327.987 72.971 328.117 73.4931 328.117 74.1443C328.117 74.5129 328.049 74.906 327.914 75.3237C327.79 75.7414 327.556 76.1161 327.211 76.4479C326.879 76.7673 326.392 76.9823 325.752 77.0929C326.22 77.2157 326.632 77.4491 326.99 77.7931C327.347 78.1371 327.606 78.4504 327.766 78.733C327.852 78.8804 327.944 79.0647 328.043 79.2859C328.154 79.4947 328.283 79.7281 328.431 79.9861C328.579 80.2441 328.745 80.5206 328.93 80.8154C329.164 81.1717 329.367 81.4359 329.539 81.6079C329.712 81.7676 329.878 81.872 330.038 81.9211C330.199 81.958 330.377 81.9764 330.574 81.9764V82.1607H328.394C327.741 82.1607 327.174 82.1361 326.694 82.087C326.214 82.0256 325.783 81.8659 325.401 81.6079C325.031 81.3376 324.668 80.9014 324.311 80.2994C324.175 80.066 324.058 79.851 323.959 79.6544C323.873 79.4456 323.799 79.2429 323.738 79.0463C323.676 78.8497 323.621 78.647 323.571 78.4381C323.535 78.2293 323.491 78.0143 323.442 77.7931C323.356 77.3631 323.245 77.0867 323.11 76.9639C322.974 76.8287 322.882 76.755 322.832 76.7427V76.5953C322.845 76.5953 322.857 76.5953 322.869 76.5953C322.882 76.5953 322.9 76.5953 322.925 76.5953C323.122 76.5953 323.319 76.5339 323.516 76.411C323.713 76.2881 323.886 76.0854 324.033 75.8029C324.181 75.508 324.28 75.1026 324.329 74.5866C324.329 74.5497 324.335 74.4821 324.348 74.3839C324.36 74.2856 324.36 74.1566 324.348 73.9969C324.323 73.4686 324.23 73.0693 324.07 72.799C323.91 72.5164 323.725 72.3199 323.516 72.2093C323.319 72.0987 323.14 72.0373 322.98 72.025C322.82 72.0004 322.728 71.9881 322.703 71.9881C322.678 71.9881 322.648 71.9881 322.611 71.9881C322.586 71.9881 322.487 71.9881 322.315 71.9881C322.303 71.9881 322.284 71.9144 322.26 71.767C322.247 71.6196 322.229 71.4721 322.204 71.3247C322.192 71.1773 322.186 71.1036 322.186 71.1036ZM322.334 71.1036V82.1607H318.694V71.1036H322.334ZM318.749 81.0181L318.731 82.1607H317.548V81.9764C317.573 81.9764 317.597 81.9764 317.622 81.9764C317.659 81.9764 317.702 81.9764 317.751 81.9764C317.998 81.9764 318.213 81.8843 318.398 81.7C318.595 81.5157 318.694 81.2884 318.694 81.0181H318.749ZM318.749 72.2461H318.694C318.694 71.9636 318.601 71.7363 318.416 71.5643C318.232 71.38 318.016 71.2879 317.77 71.2879C317.72 71.2879 317.677 71.2879 317.64 71.2879C317.603 71.2879 317.573 71.2879 317.548 71.2879V71.1036H318.731L318.749 72.2461ZM322.297 81.0181H322.334C322.334 81.3376 322.444 81.5771 322.666 81.7369C322.888 81.8966 323.103 81.9764 323.313 81.9764C323.313 81.9764 323.331 81.9764 323.368 81.9764C323.405 81.9764 323.442 81.9764 323.479 81.9764V82.1607H322.315L322.297 81.0181ZM333.294 71.122L336.823 77.0744L333.257 77.1113L329.34 71.122H333.294ZM336.823 76.9823V82.1607H333.202V77.0376L336.823 76.9823ZM339.133 71.122H340.611L336.601 77.3509L335.604 77.2034L339.133 71.122ZM338.486 72.2277C338.622 72.0066 338.615 71.7977 338.468 71.6011C338.332 71.3923 338.154 71.2879 337.932 71.2879C337.932 71.2879 337.895 71.2879 337.821 71.2879C337.759 71.2879 337.729 71.2879 337.729 71.2879V71.1036H341.757V71.2879H341.516C341.184 71.2879 340.876 71.3739 340.592 71.5459C340.321 71.7179 340.1 71.9267 339.927 72.1724L338.486 72.2277ZM333.959 72.2277L330.042 72.1724C329.882 71.9267 329.66 71.7179 329.377 71.5459C329.094 71.3739 328.786 71.2879 328.453 71.2879H328.231V71.1036H334.698V71.2879C334.698 71.2879 334.668 71.2879 334.606 71.2879C334.544 71.2879 334.514 71.2879 334.514 71.2879C334.28 71.2879 334.095 71.3923 333.959 71.6011C333.836 71.7977 333.836 72.0066 333.959 72.2277ZM333.257 81.0181V82.1607H331.982V81.9764C331.982 81.9764 332.013 81.9764 332.075 81.9764C332.149 81.9764 332.192 81.9764 332.204 81.9764C332.475 81.9764 332.709 81.8843 332.906 81.7C333.103 81.5157 333.202 81.2884 333.202 81.0181H333.257ZM336.786 81.0181H336.823C336.836 81.2884 336.94 81.5157 337.137 81.7C337.334 81.8843 337.568 81.9764 337.839 81.9764C337.839 81.9764 337.87 81.9764 337.932 81.9764C338.006 81.9764 338.043 81.9764 338.043 81.9764V82.1607H336.786V81.0181ZM352.913 71.1589V82.1607H349.273V71.1589H352.913ZM356.627 71.0851V71.9513H345.56V71.0851H356.627ZM356.627 71.8776V74.2733H356.443V74.1811C356.455 73.4809 356.27 72.9403 355.888 72.5594C355.506 72.1663 354.964 71.9636 354.262 71.9513V71.8776H356.627ZM356.627 70.8087V71.2694L354.76 71.0851C354.982 71.0851 355.223 71.0729 355.482 71.0483C355.753 71.0114 355.993 70.9746 356.202 70.9377C356.424 70.8886 356.566 70.8456 356.627 70.8087ZM349.31 81.0181V82.1607H348.128V81.9764C348.128 81.9764 348.159 81.9764 348.22 81.9764C348.282 81.9764 348.313 81.9764 348.313 81.9764C348.584 81.9764 348.805 81.8843 348.978 81.7C349.163 81.5157 349.261 81.2884 349.273 81.0181H349.31ZM352.84 81.0181H352.913C352.901 81.2884 352.987 81.5157 353.172 81.7C353.369 81.8843 353.603 81.9764 353.874 81.9764C353.874 81.9764 353.905 81.9764 353.967 81.9764C354.028 81.9764 354.059 81.9764 354.059 81.9764V82.1607H352.84V81.0181ZM347.925 71.8776V71.9513C347.223 71.9636 346.681 72.1663 346.299 72.5594C345.929 72.9403 345.744 73.4809 345.744 74.1811V74.2733H345.56V71.8776H347.925ZM345.56 70.8087C345.658 70.8456 345.812 70.8886 346.022 70.9377C346.231 70.9746 346.459 71.0114 346.705 71.0483C346.964 71.0729 347.204 71.0851 347.426 71.0851L345.56 71.2694V70.8087ZM362.261 71.1036H363.98C364.448 71.1036 364.928 71.1466 365.421 71.2326C365.913 71.3063 366.369 71.4476 366.788 71.6564C367.207 71.8653 367.546 72.1724 367.804 72.5779C368.063 72.971 368.192 73.4931 368.192 74.1443C368.192 74.5129 368.124 74.906 367.989 75.3237C367.866 75.7414 367.632 76.1161 367.287 76.4479C366.954 76.7673 366.468 76.9823 365.827 77.0929C366.295 77.2157 366.708 77.4491 367.065 77.7931C367.422 78.1371 367.681 78.4504 367.841 78.733C367.927 78.8804 368.02 79.0647 368.118 79.2859C368.229 79.4947 368.359 79.7281 368.506 79.9861C368.654 80.2441 368.82 80.5206 369.005 80.8154C369.239 81.1717 369.442 81.4359 369.615 81.6079C369.787 81.7676 369.954 81.872 370.114 81.9211C370.274 81.958 370.453 81.9764 370.65 81.9764V82.1607H368.469C367.817 82.1607 367.25 82.1361 366.77 82.087C366.289 82.0256 365.858 81.8659 365.476 81.6079C365.107 81.3376 364.743 80.9014 364.386 80.2994C364.251 80.066 364.133 79.851 364.035 79.6544C363.949 79.4456 363.875 79.2429 363.813 79.0463C363.752 78.8497 363.696 78.647 363.647 78.4381C363.61 78.2293 363.567 78.0143 363.518 77.7931C363.431 77.3631 363.321 77.0867 363.185 76.9639C363.05 76.8287 362.957 76.755 362.908 76.7427V76.5953C362.92 76.5953 362.932 76.5953 362.945 76.5953C362.957 76.5953 362.976 76.5953 363 76.5953C363.197 76.5953 363.394 76.5339 363.592 76.411C363.789 76.2881 363.961 76.0854 364.109 75.8029C364.257 75.508 364.355 75.1026 364.404 74.5866C364.404 74.5497 364.411 74.4821 364.423 74.3839C364.435 74.2856 364.435 74.1566 364.423 73.9969C364.398 73.4686 364.306 73.0693 364.146 72.799C363.986 72.5164 363.801 72.3199 363.592 72.2093C363.394 72.0987 363.216 72.0373 363.056 72.025C362.896 72.0004 362.803 71.9881 362.779 71.9881C362.754 71.9881 362.723 71.9881 362.686 71.9881C362.661 71.9881 362.563 71.9881 362.39 71.9881C362.378 71.9881 362.36 71.9144 362.335 71.767C362.323 71.6196 362.304 71.4721 362.28 71.3247C362.267 71.1773 362.261 71.1036 362.261 71.1036ZM362.409 71.1036V82.1607H358.769V71.1036H362.409ZM358.824 81.0181L358.806 82.1607H357.623V81.9764C357.648 81.9764 357.673 81.9764 357.697 81.9764C357.734 81.9764 357.777 81.9764 357.827 81.9764C358.073 81.9764 358.289 81.8843 358.473 81.7C358.671 81.5157 358.769 81.2884 358.769 81.0181H358.824ZM358.824 72.2461H358.769C358.769 71.9636 358.677 71.7363 358.492 71.5643C358.307 71.38 358.092 71.2879 357.845 71.2879C357.796 71.2879 357.753 71.2879 357.716 71.2879C357.679 71.2879 357.648 71.2879 357.623 71.2879V71.1036H358.806L358.824 72.2461ZM362.372 81.0181H362.409C362.409 81.3376 362.52 81.5771 362.742 81.7369C362.963 81.8966 363.179 81.9764 363.388 81.9764C363.388 81.9764 363.407 81.9764 363.444 81.9764C363.481 81.9764 363.518 81.9764 363.555 81.9764V82.1607H362.39L362.372 81.0181ZM373.37 71.122L376.899 77.0744L373.333 77.1113L369.416 71.122H373.37ZM376.899 76.9823V82.1607H373.277V77.0376L376.899 76.9823ZM379.208 71.122H380.686L376.677 77.3509L375.679 77.2034L379.208 71.122ZM378.562 72.2277C378.697 72.0066 378.691 71.7977 378.543 71.6011C378.408 71.3923 378.229 71.2879 378.007 71.2879C378.007 71.2879 377.97 71.2879 377.896 71.2879C377.835 71.2879 377.804 71.2879 377.804 71.2879V71.1036H381.832V71.2879H381.592C381.259 71.2879 380.951 71.3739 380.668 71.5459C380.397 71.7179 380.175 71.9267 380.003 72.1724L378.562 72.2277ZM374.035 72.2277L370.118 72.1724C369.958 71.9267 369.736 71.7179 369.452 71.5459C369.169 71.3739 368.861 71.2879 368.529 71.2879H368.307V71.1036H374.774V71.2879C374.774 71.2879 374.743 71.2879 374.681 71.2879C374.62 71.2879 374.589 71.2879 374.589 71.2879C374.355 71.2879 374.17 71.3923 374.035 71.6011C373.912 71.7977 373.912 72.0066 374.035 72.2277ZM373.333 81.0181V82.1607H372.058V81.9764C372.058 81.9764 372.089 81.9764 372.15 81.9764C372.224 81.9764 372.267 81.9764 372.279 81.9764C372.55 81.9764 372.784 81.8843 372.982 81.7C373.179 81.5157 373.277 81.2884 373.277 81.0181H373.333ZM376.862 81.0181H376.899C376.911 81.2884 377.016 81.5157 377.213 81.7C377.41 81.8843 377.644 81.9764 377.915 81.9764C377.915 81.9764 377.946 81.9764 378.007 81.9764C378.081 81.9764 378.118 81.9764 378.118 81.9764V82.1607H376.862V81.0181Z" fill="#05100E"/>
</g>
<defs>
<clipPath id="clip0_1_24582">
<rect width="465" height="129" fill="white"/>
</clipPath>
</defs>
</svg>
